<?xml version="1.0" encoding="utf-8"?>
<?xml-stylesheet type="text/xsl" href="rss1.xsl"?>
<rss version="2.0" xmlns:atom="http://www.w3.org/2005/Atom" xmlns:content="http://purl.org/rss/1.0/modules/content/" xmlns:dc="http://purl.org/dc/elements/1.1/" xmlns:media="http://search.yahoo.com/mrss/">
<channel>
 <title>Getty</title>
 <link>http://www.gettyimg.com/</link>
 <atom:link href="http://www.gettyimg.com/" rel="self" type="application/rss+xml" />

 
                <item>
                <title><![CDATA[【Singles (lossy)】Dolby AC-4 - Miley Cyrus - Wrecking Ball -  [AC-4 - IMS | 16bits/48kHz] + [E-AC3-JOC | 16bits/48kHz]]]></title>
                <link><![CDATA[https://sharemania.us/threads/miley-cyrus-wrecking-ball-ac-4-ims-16bits-48khz-e-ac3-joc-16bits-48khz.230267/]]></link>
                <description><![CDATA[<article>
<blockquote class="messageText SelectQuoteContainer ugc baseHtml">
<img src="https://m.media-amazon.com/images/I/81cIJqZbcqL.__AC_SX2000_SY2000_QL100_ML2_.jpg" class="bbCodeImage LbImage" alt="[​IMG]" data-url="https://m.media-amazon.com/images/I/81cIJqZbcqL.__AC_SX2000_SY2000_QL100_ML2_.jpg" style=""><br>
<br>
<span style="font-family: 'Arial'"><span style="font-size: 15px"><span style="color: #000255"><b> Enjoy!<br>
</b></span></span></span><br>
<br>
<div class="ToggleTriggerAnchor bbCodeSpoilerContainer">
<button type="button" class="button bbCodeSpoilerButton ToggleTrigger Tooltip JsOnly" data-target="> .SpoilerTarget"><span>Spoiler: <span class="SpoilerTitle">Copyright</span></span></button>
<div class="SpoilerTarget bbCodeSpoilerText">℗© 2013 RCA Records, a division of Sony Music Entertainment</div>
</div><br>
<div class="bbCodeBlock bbCodeVfcHH HiddenContent">
<div class="attribution type">Hidden Content:</div>
<blockquote>You must reply before you can see the hidden data contained here.</blockquote>
</div>
<div class="ToggleTriggerAnchor bbCodeSpoilerContainer">
<button type="button" class="button bbCodeSpoilerButton ToggleTrigger Tooltip JsOnly" data-target="> .SpoilerTarget"><span>Spoiler: <span class="SpoilerTitle">mediainfo Atmos</span></span></button>
<div class="SpoilerTarget bbCodeSpoilerText">
<div class="bbCodeBlock bbCodeHtml">
<div class="type">HTML:</div>
<pre>General
Complete name :Wrecking Ball - [2013]\01. Wrecking Ball.m4a
Format : MPEG-4
Format profile : Base Media
Codec ID : isom (isom/dby1/iso2/mp41)
File size : 20.4 MiB
Duration : 3 min 41 s
Overall bit rate mode : Constant
Overall bit rate : 775 kb/s
Album : Wrecking Ball
Album/Performer : Miley Cyrus
Part/Position : 1
Part/Total : 1
Track name : Wrecking Ball (Dolby Atmos)
Track name/Position : 1
Track name/Total : 16
Performer : Miley Cyrus
Producer : Henry Russell Walter / Dr. Luke
Genre : Pop
Recorded date : 2013-09-30
Writing application : Lavf60.5.100
ISRC : USRC11301214
Copyright : ℗ 2013 RCA Records, a division of Sony Music Entertainment
Cover : Yes
Rating : Clean
con : David Campbell
pub : RCA Records Label
Violin : Joel Pargman / Sara Parkins / Kevin Connolly / Grace Oh / Alyssa Park / Songa Lee / Charlie Bisharet / John Wittenberg
Viola : Darrin McCann / Andrew Duckles
UPC : 886444197816
Strings Engineer : Steve Churchyard
 Arranger : David Campbell
Songwriter : Maureen McDonald / David Kim / Stephan Moccio / Lukasz Gottwald / Sacha Skarbek / Henry Russell Walter
Recording Engineer : Clint Gibbs / Phil Allen / Sven Heidinga / Jake Gorski / Mike Caffrey
Programming : Henry Russell Walter / Dr. Luke
Piano : Stephan Moccio
Orchestrator : David Campbell
Mixing Engineer : Serban Ghenea
First Violin : Charlie Bisharet
Engineer : John Hanes
Drums : Steven Wolf
Cello : Steve Richards / Rudy Stein / Suzie Katayama
Assistant Engineer : Eric Eylands / Rachael Findlen
Apple Digital Master : True
All Instruments : Henry Russell Walter / Dr. Luke

Audio
ID : 1
Format : E-AC-3 JOC
Format/Info : Enhanced AC-3 with Joint Object Coding
Commercial name : Dolby Digital Plus with Dolby Atmos
Codec ID : ec-3
Duration : 3 min 41 s
Bit rate mode : Constant
Bit rate : 768 kb/s
Channel(s) : 6 channels
Channel layout : L R C LFE Ls Rs
Sampling rate : 48.0 kHz
Frame rate : 31.250 FPS (1536 SPF)
Compression mode : Lossy
Stream size : 20.3 MiB (99%)
Service kind : Complete Main
Default : Yes
Alternate group : 1
Complexity index : Not present / 16
Number of dynamic objects : 15
Bed channel count : 1 channel
Bed channel configuration : LFE
</pre>
</div></div>
</div>
<div class="ToggleTriggerAnchor bbCodeSpoilerContainer">
<button type="button" class="button bbCodeSpoilerButton ToggleTrigger Tooltip JsOnly" data-target="> .SpoilerTarget"><span>Spoiler: <span class="SpoilerTitle">mediainfo AC-4</span></span></button>
<div class="SpoilerTarget bbCodeSpoilerText">
<div class="bbCodeBlock bbCodeHtml">
<div class="type">HTML:</div>
<pre>General
Complete name :Wrecking Ball - [2013]\02. Wrecking Ball (AC4).m4a
Format : MPEG-4
Format profile : Base Media / Version 2
Codec ID : mp42 (mp42/dby1)
File size : 6.96 MiB
Duration : 3 min 41 s
Overall bit rate : 264 kb/s
Album : Wrecking Ball
Album/Performer : Miley Cyrus
Part/Position : 1
Part/Total : 1
Track name : Wrecking Ball (Dolby AC-4)
Track name/Position : 1
Track name/Total : 16
Performer : Miley Cyrus
Producer : Henry Russell Walter / Dr. Luke
Genre : Pop
Recorded date : 2013-09-30
Encoded date : 2023-10-13 00:31:14 UTC
Tagged date : 2023-10-13 00:31:14 UTC
ISRC : USRC11301214
Copyright : ℗ 2013 RCA Records, a division of Sony Music Entertainment
Cover : Yes
Rating : Clean
con : David Campbell
pub : RCA Records Label
Violin : Joel Pargman / Sara Parkins / Kevin Connolly / Grace Oh / Alyssa Park / Songa Lee / Charlie Bisharet / John Wittenberg
Viola : Darrin McCann / Andrew Duckles
UPC : 886444197816
Strings Engineer : Steve Churchyard
 Arranger : David Campbell
Songwriter : Maureen McDonald / David Kim / Stephan Moccio / Lukasz Gottwald / Sacha Skarbek / Henry Russell Walter
Recording Engineer : Clint Gibbs / Phil Allen / Sven Heidinga / Jake Gorski / Mike Caffrey
Programming : Henry Russell Walter / Dr. Luke
Piano : Stephan Moccio
Orchestrator : David Campbell
Mixing Engineer : Serban Ghenea
First Violin : Charlie Bisharet
Engineer : John Hanes
Drums : Steven Wolf
Cello : Steve Richards / Rudy Stein / Suzie Katayama
Assistant Engineer : Eric Eylands / Rachael Findlen
Apple Digital Master : True
All Instruments : Henry Russell Walter / Dr. Luke

Audio
ID : 1
Format : AC-4
Format/Info : Audio Coding 4
Commercial name : Dolby AC-4
Format version : Version 2
Codec ID : ac-4
Duration : 3 min 41 s
Bit rate : 256 kb/s
Channel(s) : 2 channels
Channel layout : L R
Sampling rate : 48.0 kHz
Frame rate : 23.438 FPS (2048 SPF)
Compression mode : Lossy
Stream size : 6.76 MiB (97%)
Default : Yes
Alternate group : 2
Encoded date : 2023-10-13 00:31:14 UTC
Tagged date : 2023-10-13 00:31:14 UTC
I-Frame interval : 24 frames
Number of presentations : 1
NumberOfGroups : 1
Number of substreams : 1
Presentation #1 : Immersive Stereo Main
 Presentation ID : 0
 Dolby Atmos : Yes
 Dialogue normalization : -17.00
 Loudness : Yes
  Integrated loudness (speech gated) : -29.5 LKFS
  Integrated loudness (level gated) : -16.5 LKFS
  Audio Loudness Standard : ATSC A/85
  Realtime loudness corrected : No
  Dialogue corrected : No
 Dynamic Range Control : Yes
  E-AC-3 DRC profile : Music light
  Home theater AVR : Music light
  Flat panel TV : Music light
  Portable speakers : Music light
  Portable headphones : Music light
 Group #s : 1
Group #1 : Main
 Content classifier : Main
 Channel coded : Yes
 Immersive stereo : Dolby Atmos Content
 Number of substreams : 1
 Substream #s : 1
Substream #1 : Stereo
 Channel mode : Stereo
 Immersive stereo : Dolby Atmos Content
 Channel layout : L R
</pre>
</div></div>
</div>
<div class="messageTextEndMarker">&nbsp;</div>
</blockquote>
</article>]]></description>
                <author><![CDATA[marcomdz05]]></author>
                </item>

                
                <item>
                <title><![CDATA[【Singles (lossy)】M4A - Simple Plan - Iconic (Feat. Jax) [Single]]]></title>
                <link><![CDATA[https://sharemania.us/threads/simple-plan-iconic-feat-jax-single.230269/]]></link>
                <description><![CDATA[<article>
<blockquote class="messageText SelectQuoteContainer ugc baseHtml">
<b><i><span style="font-size: 18px"><span style="color: #0080ff"><img src="https://pbs.twimg.com/media/F7xmf-GXcAEbxrH.jpg" class="bbCodeImage LbImage" alt="[​IMG]" data-url="https://pbs.twimg.com/media/F7xmf-GXcAEbxrH.jpg" style=""> <br>
<br>
ENJOY!</span></span></i></b><br>
<br>
<div class="bbCodeBlock bbCodeVfcHH HiddenContent">
<div class="attribution type">Hidden Content:</div>
<blockquote>You must reply before you can see the hidden data contained here.</blockquote>
</div>
<div class="messageTextEndMarker">&nbsp;</div>
</blockquote>
</article>]]></description>
                <author><![CDATA[danimanticore]]></author>
                </item>

                
                <item>
                <title><![CDATA[【Requests】[REQ AUD] - Anahi/Mi Delirio &amp; Christina Aguilera/Hurt [Remix]]]></title>
                <link><![CDATA[https://sharemania.us/threads/anahi-mi-delirio-christina-aguilera-hurt-remix.230268/]]></link>
                <description><![CDATA[<article>
<blockquote class="messageText SelectQuoteContainer ugc baseHtml">
Onhhh
<div class="messageTextEndMarker">&nbsp;</div>
</blockquote>
</article>]]></description>
                <author><![CDATA[SCANDAL]]></author>
                </item>

                
                <item>
                <title><![CDATA[【Live Audios (lossless)】FLAC - Halsey - Hopeless Fountain Kingdom (Live From Webster Hall) (2022) [24Bit-44.1kHz]]]></title>
                <link><![CDATA[https://sharemania.us/threads/halsey-hopeless-fountain-kingdom-live-from-webster-hall-2022-24bit-44-1khz.230270/]]></link>
                <description><![CDATA[<article>
<blockquote class="messageText SelectQuoteContainer ugc baseHtml">
Hi.<br>
Does anyone have these remixes?<br>
mp3 file downloaded from original link or reup, not youtube rip.<br>
320kbps is possible.<br>
<br>
- Anahi - Mi Delirio (DJ Rick Tribal Extended Mix)<br>
<br>
- Christina Aguilera - Hurt (AnderStanding Remix Radio Edit)<br>
I have the other versions, hard dub and intro dub, but I accidentally deleted the radio years ago.<br>
<br>
<span style="font-size: 22px"><br>
</span>
<div class="messageTextEndMarker">&nbsp;</div>
</blockquote>
</article>]]></description>
                <author><![CDATA[hgtvelesion]]></author>
                </item>

                </channel></rss>